<svg width="48" height="48" viewBox="0 0 48 48" fill="none" xmlns="http://www.w3.org/2000/svg">
<path fill-rule="evenodd" clip-rule="evenodd" d="M24 48C37.2548 48 48 37.2548 48 24C48 10.7452 37.2548 0 24 0C10.7452 0 0 10.7452 0 24C0 37.2548 10.7452 48 24 48Z" fill="#131212"/>
<path fill-rule="evenodd" clip-rule="evenodd" d="M27.1884 19.5777C27.1884 18.7813 28.0741 18.3044 28.739 18.743L35.9686 23.5119C36.5918 23.923 36.5612 24.8472 35.9122 25.216L28.6825 29.3252C28.0158 29.7041 27.1884 29.2226 27.1884 28.4558V19.5777Z" fill="white"/>
<path fill-rule="evenodd" clip-rule="evenodd" d="M20.3328 19.5777C20.3328 18.7813 19.447 18.3044 18.7821 18.743L11.5525 23.5119C10.9293 23.923 10.9599 24.8472 11.609 25.216L18.8386 29.3252C19.5053 29.7041 20.3328 29.2226 20.3328 28.4558V19.5777Z" fill="white"/>
</svg>
